<mxfile host="app.diagrams.net" agent="Mozilla/5.0 (Windows NT 10.0; Win64; x64) AppleWebKit/537.36 (KHTML, like Gecko) Chrome/130.0.0.0 Safari/537.36 Edg/130.0.0.0" version="24.7.17">
  <diagram name="Page-1" id="inKiEJlmvDwXjCQtfRTu">
    <mxGraphModel dx="1905" dy="845" grid="1" gridSize="10" guides="1" tooltips="1" connect="1" arrows="1" fold="1" page="1" pageScale="1" pageWidth="827" pageHeight="1169" math="0" shadow="0">
      <root>
        <mxCell id="0" />
        <mxCell id="1" parent="0" />
        <mxCell id="RlXfJj3BaSKlkTe6Ve-N-1" value="Utilisateur" style="shape=umlActor;verticalLabelPosition=bottom;verticalAlign=top;html=1;" vertex="1" parent="1">
          <mxGeometry x="40" y="180" width="30" height="60" as="geometry" />
        </mxCell>
        <mxCell id="RlXfJj3BaSKlkTe6Ve-N-2" value="UseCase Dev School Diagram" style="text;html=1;align=center;verticalAlign=middle;whiteSpace=wrap;rounded=0;" vertex="1" parent="1">
          <mxGeometry x="269" y="10" width="290" height="30" as="geometry" />
        </mxCell>
        <mxCell id="RlXfJj3BaSKlkTe6Ve-N-5" value="Afficher console" style="ellipse;whiteSpace=wrap;html=1;" vertex="1" parent="1">
          <mxGeometry x="540" y="80" width="120" height="80" as="geometry" />
        </mxCell>
        <mxCell id="RlXfJj3BaSKlkTe6Ve-N-7" value="Afficher les produits par options" style="ellipse;whiteSpace=wrap;html=1;" vertex="1" parent="1">
          <mxGeometry x="209" y="150" width="120" height="80" as="geometry" />
        </mxCell>
        <mxCell id="RlXfJj3BaSKlkTe6Ve-N-8" value="Afficher les produits par catégorie" style="ellipse;whiteSpace=wrap;html=1;" vertex="1" parent="1">
          <mxGeometry x="200" y="260" width="120" height="80" as="geometry" />
        </mxCell>
        <mxCell id="RlXfJj3BaSKlkTe6Ve-N-9" value="Consulter le détail d&#39;un produit" style="ellipse;whiteSpace=wrap;html=1;" vertex="1" parent="1">
          <mxGeometry x="370" y="360" width="120" height="80" as="geometry" />
        </mxCell>
        <mxCell id="RlXfJj3BaSKlkTe6Ve-N-10" value="Ajouter un produit au panier" style="ellipse;whiteSpace=wrap;html=1;" vertex="1" parent="1">
          <mxGeometry x="209" y="450" width="120" height="80" as="geometry" />
        </mxCell>
        <mxCell id="RlXfJj3BaSKlkTe6Ve-N-11" value="Extend" style="text;html=1;align=center;verticalAlign=middle;whiteSpace=wrap;rounded=0;" vertex="1" parent="1">
          <mxGeometry x="209" y="410" width="60" height="30" as="geometry" />
        </mxCell>
        <mxCell id="RlXfJj3BaSKlkTe6Ve-N-12" value="Include" style="text;html=1;align=center;verticalAlign=middle;whiteSpace=wrap;rounded=0;" vertex="1" parent="1">
          <mxGeometry x="354" y="490" width="60" height="30" as="geometry" />
        </mxCell>
        <mxCell id="RlXfJj3BaSKlkTe6Ve-N-13" value="Passer commande" style="ellipse;whiteSpace=wrap;html=1;" vertex="1" parent="1">
          <mxGeometry x="340" y="710" width="120" height="80" as="geometry" />
        </mxCell>
        <mxCell id="RlXfJj3BaSKlkTe6Ve-N-14" value="Créer le client" style="ellipse;whiteSpace=wrap;html=1;" vertex="1" parent="1">
          <mxGeometry x="170" y="880" width="120" height="80" as="geometry" />
        </mxCell>
        <mxCell id="RlXfJj3BaSKlkTe6Ve-N-15" value="Payer" style="ellipse;whiteSpace=wrap;html=1;" vertex="1" parent="1">
          <mxGeometry x="400" y="880" width="120" height="80" as="geometry" />
        </mxCell>
        <mxCell id="RlXfJj3BaSKlkTe6Ve-N-16" value="Payer en ligne" style="ellipse;whiteSpace=wrap;html=1;" vertex="1" parent="1">
          <mxGeometry x="630" y="810" width="120" height="80" as="geometry" />
        </mxCell>
        <mxCell id="RlXfJj3BaSKlkTe6Ve-N-17" value="Payer ultérieurement" style="ellipse;whiteSpace=wrap;html=1;" vertex="1" parent="1">
          <mxGeometry x="630" y="980" width="120" height="80" as="geometry" />
        </mxCell>
        <mxCell id="RlXfJj3BaSKlkTe6Ve-N-19" value="" style="endArrow=none;html=1;rounded=0;exitX=0.5;exitY=0;exitDx=0;exitDy=0;exitPerimeter=0;" edge="1" parent="1" source="RlXfJj3BaSKlkTe6Ve-N-1">
          <mxGeometry width="50" height="50" relative="1" as="geometry">
            <mxPoint x="50" y="120" as="sourcePoint" />
            <mxPoint x="540" y="120" as="targetPoint" />
            <Array as="points">
              <mxPoint x="55" y="120" />
            </Array>
          </mxGeometry>
        </mxCell>
        <mxCell id="RlXfJj3BaSKlkTe6Ve-N-20" value="" style="endArrow=none;html=1;rounded=0;" edge="1" parent="1">
          <mxGeometry width="50" height="50" relative="1" as="geometry">
            <mxPoint x="60" y="209.58" as="sourcePoint" />
            <mxPoint x="150" y="209.58" as="targetPoint" />
          </mxGeometry>
        </mxCell>
        <mxCell id="RlXfJj3BaSKlkTe6Ve-N-21" value="" style="endArrow=none;html=1;rounded=0;" edge="1" parent="1">
          <mxGeometry width="50" height="50" relative="1" as="geometry">
            <mxPoint x="150" y="210" as="sourcePoint" />
            <mxPoint x="209" y="185" as="targetPoint" />
            <Array as="points">
              <mxPoint x="150" y="185" />
            </Array>
          </mxGeometry>
        </mxCell>
        <mxCell id="RlXfJj3BaSKlkTe6Ve-N-22" value="" style="endArrow=none;html=1;rounded=0;" edge="1" parent="1">
          <mxGeometry width="50" height="50" relative="1" as="geometry">
            <mxPoint x="150" y="210" as="sourcePoint" />
            <mxPoint x="200" y="300" as="targetPoint" />
            <Array as="points">
              <mxPoint x="150" y="300" />
            </Array>
          </mxGeometry>
        </mxCell>
        <mxCell id="RlXfJj3BaSKlkTe6Ve-N-24" value="" style="endArrow=none;dashed=1;html=1;dashPattern=1 3;strokeWidth=2;rounded=0;" edge="1" parent="1">
          <mxGeometry width="50" height="50" relative="1" as="geometry">
            <mxPoint x="270" y="450" as="sourcePoint" />
            <mxPoint x="370" y="420" as="targetPoint" />
            <Array as="points">
              <mxPoint x="270" y="420" />
            </Array>
          </mxGeometry>
        </mxCell>
        <mxCell id="RlXfJj3BaSKlkTe6Ve-N-25" value="" style="endArrow=none;html=1;rounded=0;" edge="1" parent="1">
          <mxGeometry width="50" height="50" relative="1" as="geometry">
            <mxPoint x="50" y="390" as="sourcePoint" />
            <mxPoint x="370" y="390" as="targetPoint" />
          </mxGeometry>
        </mxCell>
        <mxCell id="RlXfJj3BaSKlkTe6Ve-N-26" value="" style="endArrow=none;html=1;rounded=0;" edge="1" parent="1">
          <mxGeometry width="50" height="50" relative="1" as="geometry">
            <mxPoint x="50" y="1071.2120564778645" as="sourcePoint" />
            <mxPoint x="50" y="275" as="targetPoint" />
          </mxGeometry>
        </mxCell>
        <mxCell id="RlXfJj3BaSKlkTe6Ve-N-27" value="" style="endArrow=none;html=1;rounded=0;" edge="1" parent="1">
          <mxGeometry width="50" height="50" relative="1" as="geometry">
            <mxPoint x="269" y="450" as="sourcePoint" />
            <mxPoint x="279" y="440" as="targetPoint" />
            <Array as="points">
              <mxPoint x="269" y="450" />
            </Array>
          </mxGeometry>
        </mxCell>
        <mxCell id="RlXfJj3BaSKlkTe6Ve-N-29" value="" style="endArrow=none;html=1;rounded=0;" edge="1" parent="1">
          <mxGeometry width="50" height="50" relative="1" as="geometry">
            <mxPoint x="269" y="450" as="sourcePoint" />
            <mxPoint x="259" y="440" as="targetPoint" />
          </mxGeometry>
        </mxCell>
        <mxCell id="RlXfJj3BaSKlkTe6Ve-N-30" value="Créer un panier" style="ellipse;whiteSpace=wrap;html=1;" vertex="1" parent="1">
          <mxGeometry x="420" y="520" width="120" height="80" as="geometry" />
        </mxCell>
        <mxCell id="RlXfJj3BaSKlkTe6Ve-N-31" value="" style="endArrow=none;dashed=1;html=1;dashPattern=1 3;strokeWidth=2;rounded=0;entryX=0;entryY=0.5;entryDx=0;entryDy=0;exitX=1;exitY=0.5;exitDx=0;exitDy=0;" edge="1" parent="1" source="RlXfJj3BaSKlkTe6Ve-N-10" target="RlXfJj3BaSKlkTe6Ve-N-30">
          <mxGeometry width="50" height="50" relative="1" as="geometry">
            <mxPoint x="320" y="590" as="sourcePoint" />
            <mxPoint x="370" y="540" as="targetPoint" />
            <Array as="points">
              <mxPoint x="420" y="490" />
            </Array>
          </mxGeometry>
        </mxCell>
        <mxCell id="RlXfJj3BaSKlkTe6Ve-N-32" value="" style="endArrow=none;html=1;rounded=0;" edge="1" parent="1">
          <mxGeometry width="50" height="50" relative="1" as="geometry">
            <mxPoint x="420" y="550" as="sourcePoint" />
            <mxPoint x="430" y="540" as="targetPoint" />
          </mxGeometry>
        </mxCell>
        <mxCell id="RlXfJj3BaSKlkTe6Ve-N-33" value="" style="endArrow=none;html=1;rounded=0;" edge="1" parent="1">
          <mxGeometry width="50" height="50" relative="1" as="geometry">
            <mxPoint x="419" y="550" as="sourcePoint" />
            <mxPoint x="409" y="540" as="targetPoint" />
          </mxGeometry>
        </mxCell>
        <mxCell id="RlXfJj3BaSKlkTe6Ve-N-34" value="" style="endArrow=none;html=1;rounded=0;" edge="1" parent="1">
          <mxGeometry width="50" height="50" relative="1" as="geometry">
            <mxPoint x="50" y="490" as="sourcePoint" />
            <mxPoint x="209" y="490" as="targetPoint" />
          </mxGeometry>
        </mxCell>
        <mxCell id="RlXfJj3BaSKlkTe6Ve-N-35" value="Connexion" style="ellipse;whiteSpace=wrap;html=1;" vertex="1" parent="1">
          <mxGeometry x="170" y="600" width="120" height="80" as="geometry" />
        </mxCell>
        <mxCell id="RlXfJj3BaSKlkTe6Ve-N-36" value="" style="endArrow=none;html=1;rounded=0;" edge="1" parent="1">
          <mxGeometry width="50" height="50" relative="1" as="geometry">
            <mxPoint x="50" y="640" as="sourcePoint" />
            <mxPoint x="170" y="640" as="targetPoint" />
          </mxGeometry>
        </mxCell>
        <mxCell id="RlXfJj3BaSKlkTe6Ve-N-37" value="" style="endArrow=none;dashed=1;html=1;dashPattern=1 3;strokeWidth=2;rounded=0;entryX=0;entryY=0.5;entryDx=0;entryDy=0;exitX=0.5;exitY=1;exitDx=0;exitDy=0;" edge="1" parent="1" source="RlXfJj3BaSKlkTe6Ve-N-35" target="RlXfJj3BaSKlkTe6Ve-N-13">
          <mxGeometry width="50" height="50" relative="1" as="geometry">
            <mxPoint x="320" y="720" as="sourcePoint" />
            <mxPoint x="370" y="670" as="targetPoint" />
            <Array as="points">
              <mxPoint x="230" y="750" />
            </Array>
          </mxGeometry>
        </mxCell>
        <mxCell id="RlXfJj3BaSKlkTe6Ve-N-38" value="" style="endArrow=none;dashed=1;html=1;dashPattern=1 3;strokeWidth=2;rounded=0;exitX=0.5;exitY=0;exitDx=0;exitDy=0;" edge="1" parent="1" source="RlXfJj3BaSKlkTe6Ve-N-13">
          <mxGeometry width="50" height="50" relative="1" as="geometry">
            <mxPoint x="435" y="650" as="sourcePoint" />
            <mxPoint x="485" y="600" as="targetPoint" />
            <Array as="points">
              <mxPoint x="400" y="650" />
              <mxPoint x="485" y="650" />
            </Array>
          </mxGeometry>
        </mxCell>
        <mxCell id="RlXfJj3BaSKlkTe6Ve-N-39" value="Include" style="text;html=1;align=center;verticalAlign=middle;whiteSpace=wrap;rounded=0;" vertex="1" parent="1">
          <mxGeometry x="230" y="720" width="60" height="30" as="geometry" />
        </mxCell>
        <mxCell id="RlXfJj3BaSKlkTe6Ve-N-40" value="Include" style="text;html=1;align=center;verticalAlign=middle;whiteSpace=wrap;rounded=0;" vertex="1" parent="1">
          <mxGeometry x="414" y="610" width="60" height="30" as="geometry" />
        </mxCell>
        <mxCell id="RlXfJj3BaSKlkTe6Ve-N-41" value="" style="endArrow=none;html=1;rounded=0;" edge="1" parent="1">
          <mxGeometry width="50" height="50" relative="1" as="geometry">
            <mxPoint x="220" y="690" as="sourcePoint" />
            <mxPoint x="230" y="680" as="targetPoint" />
          </mxGeometry>
        </mxCell>
        <mxCell id="RlXfJj3BaSKlkTe6Ve-N-42" value="" style="endArrow=none;html=1;rounded=0;" edge="1" parent="1">
          <mxGeometry width="50" height="50" relative="1" as="geometry">
            <mxPoint x="474" y="610" as="sourcePoint" />
            <mxPoint x="484" y="600" as="targetPoint" />
          </mxGeometry>
        </mxCell>
        <mxCell id="RlXfJj3BaSKlkTe6Ve-N-43" value="" style="endArrow=none;html=1;rounded=0;" edge="1" parent="1">
          <mxGeometry width="50" height="50" relative="1" as="geometry">
            <mxPoint x="240" y="690" as="sourcePoint" />
            <mxPoint x="230" y="680" as="targetPoint" />
          </mxGeometry>
        </mxCell>
        <mxCell id="RlXfJj3BaSKlkTe6Ve-N-44" value="" style="endArrow=none;html=1;rounded=0;" edge="1" parent="1">
          <mxGeometry width="50" height="50" relative="1" as="geometry">
            <mxPoint x="490" y="610" as="sourcePoint" />
            <mxPoint x="480" y="600" as="targetPoint" />
          </mxGeometry>
        </mxCell>
        <mxCell id="RlXfJj3BaSKlkTe6Ve-N-45" value="" style="endArrow=none;html=1;rounded=0;" edge="1" parent="1">
          <mxGeometry width="50" height="50" relative="1" as="geometry">
            <mxPoint x="50" y="920" as="sourcePoint" />
            <mxPoint x="170" y="920" as="targetPoint" />
          </mxGeometry>
        </mxCell>
        <mxCell id="RlXfJj3BaSKlkTe6Ve-N-46" value="" style="endArrow=none;html=1;rounded=0;entryX=0.5;entryY=1;entryDx=0;entryDy=0;" edge="1" parent="1" target="RlXfJj3BaSKlkTe6Ve-N-15">
          <mxGeometry width="50" height="50" relative="1" as="geometry">
            <mxPoint x="50" y="1070" as="sourcePoint" />
            <mxPoint x="410" y="1050" as="targetPoint" />
            <Array as="points">
              <mxPoint x="460" y="1070" />
            </Array>
          </mxGeometry>
        </mxCell>
        <mxCell id="RlXfJj3BaSKlkTe6Ve-N-47" value="" style="endArrow=classic;html=1;rounded=0;exitX=0;exitY=0.5;exitDx=0;exitDy=0;entryX=0.43;entryY=0.02;entryDx=0;entryDy=0;entryPerimeter=0;" edge="1" parent="1" source="RlXfJj3BaSKlkTe6Ve-N-16" target="RlXfJj3BaSKlkTe6Ve-N-15">
          <mxGeometry width="50" height="50" relative="1" as="geometry">
            <mxPoint x="360" y="960" as="sourcePoint" />
            <mxPoint x="410" y="910" as="targetPoint" />
            <Array as="points">
              <mxPoint x="452" y="850" />
            </Array>
          </mxGeometry>
        </mxCell>
        <mxCell id="RlXfJj3BaSKlkTe6Ve-N-48" value="" style="endArrow=classic;html=1;rounded=0;exitX=0;exitY=0.5;exitDx=0;exitDy=0;entryX=1;entryY=0.5;entryDx=0;entryDy=0;" edge="1" parent="1" source="RlXfJj3BaSKlkTe6Ve-N-17" target="RlXfJj3BaSKlkTe6Ve-N-15">
          <mxGeometry width="50" height="50" relative="1" as="geometry">
            <mxPoint x="360" y="960" as="sourcePoint" />
            <mxPoint x="410" y="910" as="targetPoint" />
            <Array as="points">
              <mxPoint x="570" y="1020" />
              <mxPoint x="570" y="920" />
            </Array>
          </mxGeometry>
        </mxCell>
        <mxCell id="RlXfJj3BaSKlkTe6Ve-N-49" value="Include" style="text;html=1;align=center;verticalAlign=middle;whiteSpace=wrap;rounded=0;" vertex="1" parent="1">
          <mxGeometry x="340" y="810" width="60" height="30" as="geometry" />
        </mxCell>
        <mxCell id="RlXfJj3BaSKlkTe6Ve-N-50" value="Include" style="text;html=1;align=center;verticalAlign=middle;whiteSpace=wrap;rounded=0;" vertex="1" parent="1">
          <mxGeometry x="329" y="890" width="60" height="30" as="geometry" />
        </mxCell>
        <mxCell id="RlXfJj3BaSKlkTe6Ve-N-51" value="" style="endArrow=none;dashed=1;html=1;dashPattern=1 3;strokeWidth=2;rounded=0;exitX=1;exitY=0.5;exitDx=0;exitDy=0;entryX=0;entryY=0.5;entryDx=0;entryDy=0;" edge="1" parent="1" source="RlXfJj3BaSKlkTe6Ve-N-14" target="RlXfJj3BaSKlkTe6Ve-N-15">
          <mxGeometry width="50" height="50" relative="1" as="geometry">
            <mxPoint x="360" y="960" as="sourcePoint" />
            <mxPoint x="410" y="910" as="targetPoint" />
          </mxGeometry>
        </mxCell>
        <mxCell id="RlXfJj3BaSKlkTe6Ve-N-52" value="" style="endArrow=none;html=1;rounded=0;" edge="1" parent="1">
          <mxGeometry width="50" height="50" relative="1" as="geometry">
            <mxPoint x="290" y="920" as="sourcePoint" />
            <mxPoint x="300" y="910" as="targetPoint" />
          </mxGeometry>
        </mxCell>
        <mxCell id="RlXfJj3BaSKlkTe6Ve-N-53" value="" style="endArrow=none;html=1;rounded=0;entryX=1;entryY=0.5;entryDx=0;entryDy=0;" edge="1" parent="1" target="RlXfJj3BaSKlkTe6Ve-N-14">
          <mxGeometry width="50" height="50" relative="1" as="geometry">
            <mxPoint x="300" y="930" as="sourcePoint" />
            <mxPoint x="410" y="890" as="targetPoint" />
          </mxGeometry>
        </mxCell>
        <mxCell id="RlXfJj3BaSKlkTe6Ve-N-54" value="" style="endArrow=none;dashed=1;html=1;dashPattern=1 3;strokeWidth=2;rounded=0;exitX=0.5;exitY=0;exitDx=0;exitDy=0;" edge="1" parent="1" source="RlXfJj3BaSKlkTe6Ve-N-14">
          <mxGeometry width="50" height="50" relative="1" as="geometry">
            <mxPoint x="354" y="840" as="sourcePoint" />
            <mxPoint x="404" y="790" as="targetPoint" />
            <Array as="points">
              <mxPoint x="230" y="840" />
              <mxPoint x="404" y="840" />
            </Array>
          </mxGeometry>
        </mxCell>
        <mxCell id="RlXfJj3BaSKlkTe6Ve-N-55" value="" style="endArrow=none;html=1;rounded=0;" edge="1" parent="1">
          <mxGeometry width="50" height="50" relative="1" as="geometry">
            <mxPoint x="414" y="800" as="sourcePoint" />
            <mxPoint x="404" y="790" as="targetPoint" />
          </mxGeometry>
        </mxCell>
        <mxCell id="RlXfJj3BaSKlkTe6Ve-N-56" value="" style="endArrow=none;html=1;rounded=0;" edge="1" parent="1">
          <mxGeometry width="50" height="50" relative="1" as="geometry">
            <mxPoint x="390" y="800" as="sourcePoint" />
            <mxPoint x="400" y="790" as="targetPoint" />
          </mxGeometry>
        </mxCell>
        <mxCell id="RlXfJj3BaSKlkTe6Ve-N-57" value="Application front-end" style="text;html=1;align=center;verticalAlign=middle;whiteSpace=wrap;rounded=0;" vertex="1" parent="1">
          <mxGeometry x="305" y="50" width="130" height="30" as="geometry" />
        </mxCell>
        <mxCell id="RlXfJj3BaSKlkTe6Ve-N-58" value="Renvoi la liste des produits en base" style="ellipse;whiteSpace=wrap;html=1;" vertex="1" parent="1">
          <mxGeometry x="1070" y="80" width="120" height="80" as="geometry" />
        </mxCell>
        <mxCell id="RlXfJj3BaSKlkTe6Ve-N-59" value="Application back-end" style="text;html=1;align=center;verticalAlign=middle;whiteSpace=wrap;rounded=0;" vertex="1" parent="1">
          <mxGeometry x="1111" y="30" width="130" height="30" as="geometry" />
        </mxCell>
        <mxCell id="RlXfJj3BaSKlkTe6Ve-N-60" value="Renvoi la liste des catégories en base" style="ellipse;whiteSpace=wrap;html=1;" vertex="1" parent="1">
          <mxGeometry x="1080" y="190" width="120" height="80" as="geometry" />
        </mxCell>
        <mxCell id="RlXfJj3BaSKlkTe6Ve-N-61" value="Renvoi la liste des produits pour une catégorie" style="ellipse;whiteSpace=wrap;html=1;" vertex="1" parent="1">
          <mxGeometry x="1080" y="310" width="120" height="80" as="geometry" />
        </mxCell>
        <mxCell id="RlXfJj3BaSKlkTe6Ve-N-62" value="" style="endArrow=none;html=1;rounded=0;entryX=0;entryY=0.5;entryDx=0;entryDy=0;exitX=1;exitY=0.5;exitDx=0;exitDy=0;" edge="1" parent="1" source="RlXfJj3BaSKlkTe6Ve-N-5" target="RlXfJj3BaSKlkTe6Ve-N-58">
          <mxGeometry width="50" height="50" relative="1" as="geometry">
            <mxPoint x="630" y="410" as="sourcePoint" />
            <mxPoint x="680" y="360" as="targetPoint" />
          </mxGeometry>
        </mxCell>
        <mxCell id="RlXfJj3BaSKlkTe6Ve-N-63" value="" style="endArrow=none;html=1;rounded=0;entryX=0;entryY=1;entryDx=0;entryDy=0;" edge="1" parent="1" target="RlXfJj3BaSKlkTe6Ve-N-58">
          <mxGeometry width="50" height="50" relative="1" as="geometry">
            <mxPoint x="330" y="190" as="sourcePoint" />
            <mxPoint x="1050" y="190" as="targetPoint" />
            <Array as="points">
              <mxPoint x="810" y="190" />
              <mxPoint x="810" y="150" />
            </Array>
          </mxGeometry>
        </mxCell>
        <mxCell id="RlXfJj3BaSKlkTe6Ve-N-64" value="" style="endArrow=none;html=1;rounded=0;entryX=0.5;entryY=1;entryDx=0;entryDy=0;exitX=0;exitY=0.5;exitDx=0;exitDy=0;" edge="1" parent="1" source="RlXfJj3BaSKlkTe6Ve-N-60" target="RlXfJj3BaSKlkTe6Ve-N-5">
          <mxGeometry width="50" height="50" relative="1" as="geometry">
            <mxPoint x="630" y="410" as="sourcePoint" />
            <mxPoint x="680" y="360" as="targetPoint" />
            <Array as="points">
              <mxPoint x="600" y="230" />
            </Array>
          </mxGeometry>
        </mxCell>
        <mxCell id="RlXfJj3BaSKlkTe6Ve-N-65" value="" style="endArrow=none;html=1;rounded=0;exitX=1;exitY=0.5;exitDx=0;exitDy=0;entryX=0;entryY=0.5;entryDx=0;entryDy=0;" edge="1" parent="1" source="RlXfJj3BaSKlkTe6Ve-N-8" target="RlXfJj3BaSKlkTe6Ve-N-61">
          <mxGeometry width="50" height="50" relative="1" as="geometry">
            <mxPoint x="630" y="410" as="sourcePoint" />
            <mxPoint x="680" y="360" as="targetPoint" />
            <Array as="points">
              <mxPoint x="1000" y="300" />
              <mxPoint x="1000" y="350" />
            </Array>
          </mxGeometry>
        </mxCell>
        <mxCell id="RlXfJj3BaSKlkTe6Ve-N-66" value="Renvoi toutes les infos d&#39;un produit" style="ellipse;whiteSpace=wrap;html=1;" vertex="1" parent="1">
          <mxGeometry x="1080" y="430" width="120" height="80" as="geometry" />
        </mxCell>
        <mxCell id="RlXfJj3BaSKlkTe6Ve-N-67" value="" style="endArrow=none;html=1;rounded=0;exitX=1;exitY=0.5;exitDx=0;exitDy=0;entryX=0;entryY=0.5;entryDx=0;entryDy=0;" edge="1" parent="1" source="RlXfJj3BaSKlkTe6Ve-N-9" target="RlXfJj3BaSKlkTe6Ve-N-66">
          <mxGeometry width="50" height="50" relative="1" as="geometry">
            <mxPoint x="630" y="410" as="sourcePoint" />
            <mxPoint x="680" y="360" as="targetPoint" />
            <Array as="points">
              <mxPoint x="790" y="400" />
              <mxPoint x="790" y="470" />
            </Array>
          </mxGeometry>
        </mxCell>
        <mxCell id="RlXfJj3BaSKlkTe6Ve-N-68" value="Demande de connexion" style="ellipse;whiteSpace=wrap;html=1;" vertex="1" parent="1">
          <mxGeometry x="1080" y="550" width="120" height="80" as="geometry" />
        </mxCell>
        <mxCell id="RlXfJj3BaSKlkTe6Ve-N-69" value="Mettre à jour&amp;nbsp;&lt;span style=&quot;color: rgba(0, 0, 0, 0); font-family: monospace; font-size: 0px; text-align: start; text-wrap-mode: nowrap;&quot;&gt;%3CmxGraphModel%3E%3Croot%3E%3CmxCell%20id%3D%220%22%2F%3E%3CmxCell%20id%3D%221%22%20parent%3D%220%22%2F%3E%3CmxCell%20id%3D%222%22%20value%3D%22Renvoi%20toutes%20les%20infos%20d&#39;un%20produit%22%20style%3D%22ellipse%3BwhiteSpace%3Dwrap%3Bhtml%3D1%3B%22%20vertex%3D%221%22%20parent%3D%221%22%3E%3CmxGeometry%20x%3D%221080%22%20y%3D%22430%22%20width%3D%22120%22%20height%3D%2280%22%20as%3D%22geometry%22%2F%3E%3C%2FmxCell%3E%3C%2Froot%3E%3C%2FmxGraphModel%3E&lt;/span&gt;un produit" style="ellipse;whiteSpace=wrap;html=1;" vertex="1" parent="1">
          <mxGeometry x="1080" y="680" width="120" height="80" as="geometry" />
        </mxCell>
        <mxCell id="RlXfJj3BaSKlkTe6Ve-N-70" value="Créer une commande" style="ellipse;whiteSpace=wrap;html=1;" vertex="1" parent="1">
          <mxGeometry x="1080" y="810" width="120" height="80" as="geometry" />
        </mxCell>
        <mxCell id="RlXfJj3BaSKlkTe6Ve-N-71" value="" style="endArrow=none;html=1;rounded=0;entryX=0;entryY=0.5;entryDx=0;entryDy=0;exitX=1;exitY=0.5;exitDx=0;exitDy=0;" edge="1" parent="1" source="RlXfJj3BaSKlkTe6Ve-N-13" target="RlXfJj3BaSKlkTe6Ve-N-70">
          <mxGeometry width="50" height="50" relative="1" as="geometry">
            <mxPoint x="470" y="750" as="sourcePoint" />
            <mxPoint x="680" y="680" as="targetPoint" />
            <Array as="points">
              <mxPoint x="850" y="750" />
              <mxPoint x="850" y="850" />
            </Array>
          </mxGeometry>
        </mxCell>
        <mxCell id="RlXfJj3BaSKlkTe6Ve-N-72" value="" style="endArrow=none;html=1;rounded=0;exitX=1;exitY=0.5;exitDx=0;exitDy=0;entryX=0;entryY=0.5;entryDx=0;entryDy=0;" edge="1" parent="1" source="RlXfJj3BaSKlkTe6Ve-N-35" target="RlXfJj3BaSKlkTe6Ve-N-68">
          <mxGeometry width="50" height="50" relative="1" as="geometry">
            <mxPoint x="630" y="730" as="sourcePoint" />
            <mxPoint x="680" y="680" as="targetPoint" />
            <Array as="points">
              <mxPoint x="820" y="640" />
              <mxPoint x="820" y="590" />
            </Array>
          </mxGeometry>
        </mxCell>
        <mxCell id="RlXfJj3BaSKlkTe6Ve-N-73" value="" style="endArrow=none;html=1;rounded=0;entryX=0;entryY=0.5;entryDx=0;entryDy=0;exitX=0.999;exitY=0.261;exitDx=0;exitDy=0;exitPerimeter=0;" edge="1" parent="1" source="RlXfJj3BaSKlkTe6Ve-N-15" target="RlXfJj3BaSKlkTe6Ve-N-69">
          <mxGeometry width="50" height="50" relative="1" as="geometry">
            <mxPoint x="580" y="900" as="sourcePoint" />
            <mxPoint x="680" y="680" as="targetPoint" />
            <Array as="points">
              <mxPoint x="940" y="901" />
              <mxPoint x="940" y="720" />
            </Array>
          </mxGeometry>
        </mxCell>
      </root>
    </mxGraphModel>
  </diagram>
</mxfile>
